<svg id="outline" height="512" viewBox="0 0 512 512" width="512" xmlns="http://www.w3.org/2000/svg"><path d="m423.0293 83.71533a39.74137 39.74137 0 0 0 -28.28418-11.71533h-82.74512a40.04552 40.04552 0 0 0 -40 40v40.35089a40.5824 40.5824 0 0 0 -5.25488-.35089h-32.8562a40.29948 40.29948 0 0 0 -5.60474-7.0293l-61.25488-61.25537a39.74137 39.74137 0 0 0 -28.28418-11.71533h-82.74512a40.04552 40.04552 0 0 0 -40 40v208a40.04552 40.04552 0 0 0 40 40h88v40a40.04552 40.04552 0 0 0 40 40h144a40.04552 40.04552 0 0 0 40-40v-40h88a40.04552 40.04552 0 0 0 40-40v-146.74512a39.73513 39.73513 0 0 0 -11.71582-28.28418zm-391.0293 236.28467v-208a24.0275 24.0275 0 0 1 24-24h82.74512a24.18915 24.18915 0 0 1 5.25488.58105v55.41895a24.02718 24.02718 0 0 0 24 24h24v-16h-24a8.00917 8.00917 0 0 1 -8-8v-44.68646l56.9707 56.97113a23.83889 23.83889 0 0 1 7.0293 16.97021v146.74512a24.0275 24.0275 0 0 1 -24 24h-144a24.0275 24.0275 0 0 1 -24-24zm320 80a24.0275 24.0275 0 0 1 -24 24h-144a24.0275 24.0275 0 0 1 -24-24v-40h40a40.04552 40.04552 0 0 0 40-40v-146.74512a40.593 40.593 0 0 0 -.35083-5.25488h27.09595a24.18915 24.18915 0 0 1 5.25488.58105v55.41895a24.02718 24.02718 0 0 0 24 24h24v-16h-24a8.00917 8.00917 0 0 1 -8-8v-44.68646l56.9707 56.97113a23.83889 23.83889 0 0 1 7.0293 16.97021zm128-80a24.0275 24.0275 0 0 1 -24 24h-88v-90.74512a39.73513 39.73513 0 0 0 -11.71582-28.28418l-61.25488-61.25537a40.30776 40.30776 0 0 0 -7.0293-5.60388v-46.11145a24.0275 24.0275 0 0 1 24-24h82.74512a24.18915 24.18915 0 0 1 5.25488.58105v55.41895a24.02718 24.02718 0 0 0 24 24h24v-16h-24a8.00917 8.00917 0 0 1 -8-8v-44.68646l56.9707 56.97113a23.83889 23.83889 0 0 1 7.0293 16.97021z"/><path d="m96 160h24v16h-24z"/><path d="m64 160h16v16h-16z"/><path d="m352 160h24v16h-24z"/><path d="m320 160h16v16h-16z"/><path d="m64 200h80v16h-80z"/><path d="m160 200h32v16h-32z"/><path d="m64 280h80v16h-80z"/><path d="m160 280h32v16h-32z"/><path d="m240 360h48v16h-48z"/><path d="m304 360h16v16h-16z"/><path d="m416 200h32v16h-32z"/><path d="m368 200h32v16h-32z"/><path d="m424 240h24v16h-24z"/><path d="m392 240h16v16h-16z"/><path d="m392 280h56v16h-56z"/><path d="m96 240h24v16h-24z"/><path d="m64 240h16v16h-16z"/><path d="m136 240h56v16h-56z"/><path d="m264 280h24v16h-24z"/><path d="m304 280h16v16h-16z"/><path d="m264 320h56v16h-56z"/></svg>