<svg id="Layer_1_1_" enable-background="new 0 0 64 64" height="512" viewBox="0 0 64 64" width="512" xmlns="http://www.w3.org/2000/svg"><path d="m32 62c8.301 0 24-1.254 24-6v-48c0-4.746-15.699-6-24-6s-24 1.254-24 6v48c0 4.746 15.699 6 24 6zm0-2c-16.258 0-22-3.186-22-4v-45.371c4.494 2.604 15.509 3.371 22 3.371s17.506-.767 22-3.371v45.371c0 .814-5.742 4-22 4zm0-56c16.258 0 22 3.186 22 4s-5.742 4-22 4-22-3.186-22-4 5.742-4 22-4z"/><path d="m13 51h2v2h-2z"/><path d="m17 51h2v2h-2z"/><path d="m21 51h2v2h-2z"/><path d="m25 51h2v2h-2z"/><path d="m29 51h2v2h-2z"/><path d="m33 51h2v2h-2z"/><path d="m37 51h2v2h-2z"/><path d="m41 51h2v2h-2z"/><path d="m45 51h2v2h-2z"/><path d="m17 55h2v2h-2z"/><path d="m21 55h2v2h-2z"/><path d="m25 55h2v2h-2z"/><path d="m29 55h2v2h-2z"/><path d="m33 55h2v2h-2z"/><path d="m37 55h2v2h-2z"/><path d="m41 55h2v2h-2z"/><path d="m45 55h2v2h-2z"/><path d="m49 51h2v2h-2z"/><path d="m13 47h2v2h-2z"/><path d="m17 47h2v2h-2z"/><path d="m21 47h2v2h-2z"/><path d="m25 47h2v2h-2z"/><path d="m29 47h2v2h-2z"/><path d="m33 47h2v2h-2z"/><path d="m37 47h2v2h-2z"/><path d="m41 47h2v2h-2z"/><path d="m45 47h2v2h-2z"/><path d="m49 47h2v2h-2z"/><path d="m13 43h2v2h-2z"/><path d="m17 43h2v2h-2z"/><path d="m21 43h2v2h-2z"/><path d="m25 43h2v2h-2z"/><path d="m29 43h2v2h-2z"/><path d="m33 43h2v2h-2z"/><path d="m37 43h2v2h-2z"/><path d="m41 43h2v2h-2z"/><path d="m45 43h2v2h-2z"/><path d="m49 43h2v2h-2z"/><path d="m13 39h2v2h-2z"/><path d="m17 39h2v2h-2z"/><path d="m21 39h2v2h-2z"/><path d="m25 39h2v2h-2z"/><path d="m29 39h2v2h-2z"/><path d="m33 39h2v2h-2z"/><path d="m37 39h2v2h-2z"/><path d="m41 39h2v2h-2z"/><path d="m45 39h2v2h-2z"/><path d="m49 39h2v2h-2z"/><path d="m13 35h2v2h-2z"/><path d="m17 35h2v2h-2z"/><path d="m21 35h2v2h-2z"/><path d="m25 35h2v2h-2z"/><path d="m29 35h2v2h-2z"/><path d="m33 35h2v2h-2z"/><path d="m37 35h2v2h-2z"/><path d="m41 35h2v2h-2z"/><path d="m45 35h2v2h-2z"/><path d="m49 35h2v2h-2z"/><path d="m13 31h2v2h-2z"/><path d="m17 31h2v2h-2z"/><path d="m21 31h2v2h-2z"/><path d="m25 31h2v2h-2z"/><path d="m29 31h2v2h-2z"/><path d="m33 31h2v2h-2z"/><path d="m37 31h2v2h-2z"/><path d="m41 31h2v2h-2z"/><path d="m45 31h2v2h-2z"/><path d="m49 31h2v2h-2z"/><path d="m31 7h2v2h-2z"/><path d="m17 7h2v2h-2z"/><path d="m45 7h2v2h-2z"/></svg>