<?xml version="1.0" encoding="UTF-8" standalone="no"?>
<!-- Created with Inkscape (http://www.inkscape.org/) -->

<svg
   xmlns:dc="http://purl.org/dc/elements/1.1/"
   xmlns:cc="http://creativecommons.org/ns#"
   xmlns:rdf="http://www.w3.org/1999/02/22-rdf-syntax-ns#"
   xmlns:svg="http://www.w3.org/2000/svg"
   xmlns="http://www.w3.org/2000/svg"
   xmlns:sodipodi="http://sodipodi.sourceforge.net/DTD/sodipodi-0.dtd"
   xmlns:inkscape="http://www.inkscape.org/namespaces/inkscape"
   width="210mm"
   height="297mm"
   viewBox="0 0 210 297"
   version="1.1"
   id="svg8"
   inkscape:version="0.92.3 (2405546, 2018-03-11)"
   sodipodi:docname="phone.svg">
  <defs
     id="defs2" />
  <sodipodi:namedview
     id="base"
     pagecolor="#ffffff"
     bordercolor="#666666"
     borderopacity="1.0"
     inkscape:pageopacity="0.0"
     inkscape:pageshadow="2"
     inkscape:zoom="0.35"
     inkscape:cx="-162.85714"
     inkscape:cy="445.71429"
     inkscape:document-units="mm"
     inkscape:current-layer="layer1"
     showgrid="false"
     inkscape:window-width="1366"
     inkscape:window-height="704"
     inkscape:window-x="0"
     inkscape:window-y="27"
     inkscape:window-maximized="1" />
  <metadata
     id="metadata5">
    <rdf:RDF>
      <cc:Work
         rdf:about="">
        <dc:format>image/svg+xml</dc:format>
        <dc:type
           rdf:resource="http://purl.org/dc/dcmitype/StillImage" />
        <dc:title></dc:title>
      </cc:Work>
    </rdf:RDF>
  </metadata>
  <g
     inkscape:label="Layer 1"
     inkscape:groupmode="layer"
     id="layer1">
    <rect
       style="opacity:1;vector-effect:none;fill:none;fill-opacity:1;stroke:#000000;stroke-width:3.26494241;stroke-linecap:square;stroke-linejoin:round;stroke-miterlimit:4.19999981;stroke-dasharray:none;stroke-dashoffset:0;stroke-opacity:1"
       id="rect815"
       width="164.84241"
       height="274.22089"
       x="22.578796"
       y="11.389557"
       ry="8.2266273"
       rx="8.2266273" />
    <g
       id="g995"
       transform="matrix(0.31029224,0,0,0.31029224,43.084442,86.584597)">
      <g
         id="g821">
	<g
   id="g819">
		<path
   id="path817"
   d="m 371.84,100.04 c -2.01,-3.457 -6.443,-4.63 -9.9,-2.62 l -35.36,20.44 c -3.457,2.01 -4.63,6.443 -2.62,9.9 2.01,3.457 6.443,4.63 9.9,2.62 l 35.36,-20.44 c 3.457,-2.011 4.63,-6.443 2.62,-9.9 z"
   inkscape:connector-curvature="0" />

	</g>

</g>
      <g
         id="g827">
	<g
   id="g825">
		<path
   id="path823"
   d="m 369.22,289.18 -35.36,-20.44 c -3.457,-2.01 -7.89,-0.837 -9.9,2.62 -2.01,3.457 -0.837,7.89 2.62,9.9 l 35.36,20.44 c 3.457,2.01 7.89,0.837 9.9,-2.62 2.01,-3.458 0.837,-7.89 -2.62,-9.9 z"
   inkscape:connector-curvature="0" />

	</g>

</g>
      <g
         id="g833">
	<g
   id="g831">
		<path
   id="path829"
   d="m 200.099,342.62 c -4.01,-0.298 -7.501,2.711 -7.799,6.721 -0.027,0.359 -0.027,0.719 0,1.078 v 40.84 c -0.298,4.01 2.711,7.501 6.721,7.799 4.01,0.298 7.501,-2.711 7.799,-6.721 0.027,-0.359 0.027,-0.719 0,-1.078 v -40.84 c 0.297,-4.009 -2.712,-7.501 -6.721,-7.799 z"
   inkscape:connector-curvature="0" />

	</g>

</g>
      <g
         id="g839">
	<g
   id="g837">
		<path
   id="path835"
   d="M 72.5,117.86 37.14,97.42 c -3.457,-2.01 -7.89,-0.837 -9.9,2.62 -2.01,3.457 -0.837,7.89 2.62,9.9 l 35.36,20.44 c 3.457,2.01 7.89,0.837 9.9,-2.62 2.01,-3.458 0.837,-7.89 -2.62,-9.9 z"
   inkscape:connector-curvature="0" />

	</g>

</g>
      <g
         id="g845">
	<g
   id="g843">
		<path
   id="path841"
   d="m 200.099,0.02 c -4.01,-0.298 -7.501,2.711 -7.799,6.721 -0.027,0.359 -0.027,0.719 0,1.078 v 40.84 c 0.022,3.989 3.251,7.218 7.24,7.24 4.021,0 7.28,-3.259 7.28,-7.28 V 7.82 c 0.297,-4.01 -2.712,-7.502 -6.721,-7.8 z"
   inkscape:connector-curvature="0" />

	</g>

</g>
      <g
         id="g851">
	<g
   id="g849">
		<path
   id="path847"
   d="m 130.34,65.22 -20.4,-35.36 c -2.01,-3.457 -6.443,-4.63 -9.9,-2.62 -3.457,2.01 -4.63,6.443 -2.62,9.9 l 20.4,35.36 c 2.01,3.457 6.443,4.63 9.9,2.62 3.457,-2.011 4.63,-6.443 2.62,-9.9 z"
   inkscape:connector-curvature="0" />

	</g>

</g>
      <g
         id="g857">
	<g
   id="g855">
		<path
   id="path853"
   d="m 200.618,134.94 c -0.359,-0.027 -0.719,-0.027 -1.078,0 -35.678,0 -64.6,28.922 -64.6,64.6 0,4.021 3.259,7.28 7.28,7.28 4.005,-0.022 7.24,-3.275 7.24,-7.28 -0.022,-27.636 22.364,-50.058 50,-50.08 0.027,0 0.053,0 0.08,0 4.01,0.298 7.501,-2.711 7.799,-6.721 0.298,-4.01 -2.711,-7.502 -6.721,-7.799 z"
   inkscape:connector-curvature="0" />

	</g>

</g>
      <g
         id="g863">
	<g
   id="g861">
		<path
   id="path859"
   d="m 397.98,198.98 c -0.267,-3.595 -3.125,-6.454 -6.721,-6.721 h -40.84 c -4.01,-0.298 -7.501,2.711 -7.799,6.721 -0.298,4.01 2.711,7.501 6.721,7.799 0.359,0.027 0.72,0.027 1.079,0 h 40.84 c 4.009,-0.297 7.018,-3.789 6.72,-7.799 z"
   inkscape:connector-curvature="0" />

	</g>

</g>
      <g
         id="g869">
	<g
   id="g867">
		<path
   id="path865"
   d="m 49.738,192.3 c -0.359,-0.027 -0.719,-0.027 -1.078,0 H 7.82 c -4.01,0.298 -7.019,3.79 -6.721,7.799 0.267,3.595 3.125,6.454 6.721,6.721 h 40.84 c 4.01,0.298 7.501,-2.711 7.799,-6.721 0.298,-4.01 -2.711,-7.502 -6.721,-7.799 z"
   inkscape:connector-curvature="0" />

	</g>

</g>
      <g
         id="g875">
	<g
   id="g873">
		<path
   id="path871"
   d="M 199.569,92.7 C 140.563,92.692 92.723,140.519 92.714,199.525 c -0.004,28.347 11.258,55.534 31.305,75.575 20.009,20.059 47.188,31.316 75.52,31.28 59.006,0.008 106.847,-47.819 106.855,-106.825 C 306.402,140.549 258.575,92.708 199.569,92.7 Z m 65.25,172.24 c -36.053,36.053 -94.507,36.053 -130.56,0 -17.343,-17.343 -27.072,-40.874 -27.04,-65.4 -0.035,-24.492 9.697,-47.987 27.04,-65.28 v 0.12 c 36.053,-36.053 94.507,-36.053 130.56,0 36.054,36.053 36.054,94.507 0,130.56 z"
   inkscape:connector-curvature="0" />

	</g>

</g>
      <g
         id="g881">
	<g
   id="g879">
		<path
   id="path877"
   d="m 301.678,361.972 c -0.006,-0.011 -0.012,-0.022 -0.019,-0.032 l -20.44,-35.36 c -2.01,-3.457 -6.443,-4.63 -9.9,-2.62 -3.457,2.01 -4.63,6.443 -2.62,9.9 l 20.44,35.36 c 2.002,3.453 6.422,4.634 9.88,2.64 3.465,-1.997 4.656,-6.424 2.659,-9.888 z"
   inkscape:connector-curvature="0" />

	</g>

</g>
      <g
         id="g887">
	<g
   id="g885">
		<path
   id="path883"
   d="m 299.28,27.24 c -3.457,-2.01 -7.89,-0.837 -9.9,2.62 l -20.44,35.36 c -2.024,3.449 -0.868,7.885 2.58,9.908 0.007,0.004 0.013,0.008 0.02,0.012 v 0 c 3.454,2.014 7.887,0.847 9.901,-2.608 0.006,-0.011 0.013,-0.022 0.019,-0.032 L 301.9,37.14 c 2.01,-3.458 0.837,-7.89 -2.62,-9.9 z"
   inkscape:connector-curvature="0" />

	</g>

</g>
      <g
         id="g893">
	<g
   id="g891">
		<path
   id="path889"
   d="m 127.76,323.96 c -3.457,-2.01 -7.89,-0.837 -9.9,2.62 l -20.44,35.36 c -2.01,3.457 -0.837,7.89 2.62,9.9 3.457,2.01 7.89,0.837 9.9,-2.62 l 20.44,-35.36 c 2.01,-3.458 0.837,-7.89 -2.62,-9.9 z"
   inkscape:connector-curvature="0" />

	</g>

</g>
      <g
         id="g899">
	<g
   id="g897">
		<path
   id="path895"
   d="m 75.12,271.32 c -2.01,-3.457 -6.443,-4.63 -9.9,-2.62 l -35.36,20.44 c -3.457,2.01 -4.63,6.443 -2.62,9.9 2.01,3.457 6.443,4.63 9.9,2.62 L 72.5,281.22 c 3.457,-2.011 4.63,-6.443 2.62,-9.9 z"
   inkscape:connector-curvature="0" />

	</g>

</g>
      <g
         id="g901">
</g>
      <g
         id="g903">
</g>
      <g
         id="g905">
</g>
      <g
         id="g907">
</g>
      <g
         id="g909">
</g>
      <g
         id="g911">
</g>
      <g
         id="g913">
</g>
      <g
         id="g915">
</g>
      <g
         id="g917">
</g>
      <g
         id="g919">
</g>
      <g
         id="g921">
</g>
      <g
         id="g923">
</g>
      <g
         id="g925">
</g>
      <g
         id="g927">
</g>
      <g
         id="g929">
</g>
    </g>
  </g>
</svg>
