<?xml version="1.0" encoding="UTF-8" standalone="no"?>
<svg
   xmlns:dc="http://purl.org/dc/elements/1.1/"
   xmlns:cc="http://creativecommons.org/ns#"
   xmlns:rdf="http://www.w3.org/1999/02/22-rdf-syntax-ns#"
   xmlns:svg="http://www.w3.org/2000/svg"
   xmlns="http://www.w3.org/2000/svg"
   xmlns:sodipodi="http://sodipodi.sourceforge.net/DTD/sodipodi-0.dtd"
   xmlns:inkscape="http://www.inkscape.org/namespaces/inkscape"
   height="479pt"
   viewBox="-16 0 479 479.99148"
   width="479pt"
   version="1.1"
   id="svg4"
   sodipodi:docname="tshirtwet.svg"
   inkscape:version="0.92.3 (2405546, 2018-03-11)">
  <metadata
     id="metadata10">
    <rdf:RDF>
      <cc:Work
         rdf:about="">
        <dc:format>image/svg+xml</dc:format>
        <dc:type
           rdf:resource="http://purl.org/dc/dcmitype/StillImage" />
      </cc:Work>
    </rdf:RDF>
  </metadata>
  <defs
     id="defs8" />
  <sodipodi:namedview
     pagecolor="#ffffff"
     bordercolor="#666666"
     borderopacity="1"
     objecttolerance="10"
     gridtolerance="10"
     guidetolerance="10"
     inkscape:pageopacity="0"
     inkscape:pageshadow="2"
     inkscape:window-width="1366"
     inkscape:window-height="704"
     id="namedview6"
     showgrid="false"
     inkscape:zoom="0.36951983"
     inkscape:cx="319.33333"
     inkscape:cy="319.33333"
     inkscape:window-x="0"
     inkscape:window-y="27"
     inkscape:window-maximized="1"
     inkscape:current-layer="svg4" />
  <path
     d="m224.53125 47.992188c-4.417969 0-8 3.582031-8 8v26.238281l-42.039062 14.007812-79.5625 15.914063c-.964844.191406-1.890626.558594-2.726563 1.085937l-88 56c-3.730469 2.371094-4.828125 7.320313-2.457031 11.050781l56 88c1.273437 1.988282 3.355468 3.3125 5.695312 3.621094 2.34375.308594 4.699219-.429687 6.441406-2.023437l18.648438-16.902344v219.007813c0 4.417968 3.582031 8 8 8h256c4.417969 0 8-3.582032 8-8v-217.296876l18.9375 15.488282c1.714844 1.425781 3.953125 2.054687 6.160156 1.726562 2.203125-.296875 4.183594-1.507812 5.453125-3.335937l56-80c2.503907-3.570313 1.679688-8.488281-1.847656-11.054688l-88-64c-.933594-.679687-2.003906-1.144531-3.132813-1.367187l-79.53125-15.914063-42.039062-14.007812v-19.375c16.0625-4.1875 26.242188-19.972657 23.425781-36.332031-2.816406-16.355469-17.6875-27.832032-34.222656-26.40625-16.539063 1.425781-29.226563 15.277343-29.203125 31.875 0 4.417968 3.582031 8 8 8s8-3.582032 8-8c0-8.835938 7.164062-16 16-16s16 7.164062 16 16c0 8.835937-7.164062 16-16 16zm0 48.429687 39.441406 13.167969c-2.699218 19.714844-19.542968 34.410156-39.441406 34.410156s-36.738281-14.695312-39.441406-34.410156zm204.945312 89.417969-46.546874 66.503906-25.324219-20.726562c-2.394531-1.964844-5.707031-2.371094-8.503907-1.042969-2.792968 1.324219-4.574218 4.144531-4.570312 7.242187v226.175782h-240v-229.097657c0-3.167969-1.867188-6.035156-4.761719-7.316406-2.898437-1.28125-6.277343-.734375-8.621093 1.398437l-24.96875 22.703126-46.609376-73.230469 80-50.90625 69.761719-13.953125c4.65625 26.835937 27.941407 46.429687 55.175781 46.429687 27.234376 0 50.519532-19.59375 55.175782-46.429687l69.535156 13.914062zm0 0"
     id="path2" />
  <g
     id="g861"
     transform="matrix(0.26234697,0,0,0.26234697,86.641843,139.1748)">
    <path
       style="stroke-width:1.00024462"
       id="path821"
       d="m 217.09805,389.77402 c -2.03956,2.31306 -50.01223,57.10381 -50.01223,93.3197 0,40.68182 20.41905,64.01565 56.0137,64.01565 35.59073,0 56.01369,-23.33383 56.01369,-64.01565 0,-36.21589 -47.97267,-91.00664 -50.01223,-93.3197 -1.56288,-1.64884 -3.73138,-2.58266 -6.00146,-2.58266 -2.27009,0 -4.4425,0.93382 -6.00147,2.58266 z m 6.00147,141.33144 c -26.54165,0 -40.00979,-16.15629 -40.00979,-48.01174 0,-21.75141 25.03738,-57.15851 40.00979,-75.60443 14.98022,18.40685 40.00978,53.82176 40.00978,75.60443 0,31.85545 -13.46813,48.01174 -40.00978,48.01174 z m 0,0"
       inkscape:connector-curvature="0" />
    <path
       style="stroke-width:1.00024462"
       id="path827"
       d="m 218.67265,499.93768 c -2.49671,-1.00806 -4.42296,-3.05934 -5.27473,-5.61466 -0.84786,-2.5514 -0.53529,-5.35287 0.85959,-7.65421 1.97314,-3.9541 0.37119,-8.76386 -3.58681,-10.737 -3.9541,-1.97705 -8.75995,-0.37119 -10.73701,3.5829 -3.28986,6.11088 -3.9111,13.31186 -1.71917,19.8955 2.19586,6.58364 7.00954,11.97167 13.30404,14.89036 3.958,1.97704 8.76386,0.37118 10.74091,-3.58682 1.97313,-3.95409 0.37118,-8.75995 -3.58682,-10.73699 z m 0,0"
       inkscape:connector-curvature="0" />
  </g>
  <g
     transform="matrix(0.26234697,0,0,0.26234697,155.79316,200.19066)"
     id="g867">
    <path
       inkscape:connector-curvature="0"
       d="m 217.09805,389.77402 c -2.03956,2.31306 -50.01223,57.10381 -50.01223,93.3197 0,40.68182 20.41905,64.01565 56.0137,64.01565 35.59073,0 56.01369,-23.33383 56.01369,-64.01565 0,-36.21589 -47.97267,-91.00664 -50.01223,-93.3197 -1.56288,-1.64884 -3.73138,-2.58266 -6.00146,-2.58266 -2.27009,0 -4.4425,0.93382 -6.00147,2.58266 z m 6.00147,141.33144 c -26.54165,0 -40.00979,-16.15629 -40.00979,-48.01174 0,-21.75141 25.03738,-57.15851 40.00979,-75.60443 14.98022,18.40685 40.00978,53.82176 40.00978,75.60443 0,31.85545 -13.46813,48.01174 -40.00978,48.01174 z m 0,0"
       id="path863"
       style="stroke-width:1.00024462" />
    <path
       inkscape:connector-curvature="0"
       d="m 218.67265,499.93768 c -2.49671,-1.00806 -4.42296,-3.05934 -5.27473,-5.61466 -0.84786,-2.5514 -0.53529,-5.35287 0.85959,-7.65421 1.97314,-3.9541 0.37119,-8.76386 -3.58681,-10.737 -3.9541,-1.97705 -8.75995,-0.37119 -10.73701,3.5829 -3.28986,6.11088 -3.9111,13.31186 -1.71917,19.8955 2.19586,6.58364 7.00954,11.97167 13.30404,14.89036 3.958,1.97704 8.76386,0.37118 10.74091,-3.58682 1.97313,-3.95409 0.37118,-8.75995 -3.58682,-10.73699 z m 0,0"
       id="path865"
       style="stroke-width:1.00024462" />
  </g>
  <g
     id="g873"
     transform="matrix(0.26234697,0,0,0.26234697,251.38468,279.51128)">
    <path
       style="stroke-width:1.00024462"
       id="path869"
       d="m 217.09805,389.77402 c -2.03956,2.31306 -50.01223,57.10381 -50.01223,93.3197 0,40.68182 20.41905,64.01565 56.0137,64.01565 35.59073,0 56.01369,-23.33383 56.01369,-64.01565 0,-36.21589 -47.97267,-91.00664 -50.01223,-93.3197 -1.56288,-1.64884 -3.73138,-2.58266 -6.00146,-2.58266 -2.27009,0 -4.4425,0.93382 -6.00147,2.58266 z m 6.00147,141.33144 c -26.54165,0 -40.00979,-16.15629 -40.00979,-48.01174 0,-21.75141 25.03738,-57.15851 40.00979,-75.60443 14.98022,18.40685 40.00978,53.82176 40.00978,75.60443 0,31.85545 -13.46813,48.01174 -40.00978,48.01174 z m 0,0"
       inkscape:connector-curvature="0" />
    <path
       style="stroke-width:1.00024462"
       id="path871"
       d="m 218.67265,499.93768 c -2.49671,-1.00806 -4.42296,-3.05934 -5.27473,-5.61466 -0.84786,-2.5514 -0.53529,-5.35287 0.85959,-7.65421 1.97314,-3.9541 0.37119,-8.76386 -3.58681,-10.737 -3.9541,-1.97705 -8.75995,-0.37119 -10.73701,3.5829 -3.28986,6.11088 -3.9111,13.31186 -1.71917,19.8955 2.19586,6.58364 7.00954,11.97167 13.30404,14.89036 3.958,1.97704 8.76386,0.37118 10.74091,-3.58682 1.97313,-3.95409 0.37118,-8.75995 -3.58682,-10.73699 z m 0,0"
       inkscape:connector-curvature="0" />
  </g>
  <g
     transform="matrix(0.26234697,0,0,0.26234697,186.30109,84.260515)"
     id="g879">
    <path
       inkscape:connector-curvature="0"
       d="m 217.09805,389.77402 c -2.03956,2.31306 -50.01223,57.10381 -50.01223,93.3197 0,40.68182 20.41905,64.01565 56.0137,64.01565 35.59073,0 56.01369,-23.33383 56.01369,-64.01565 0,-36.21589 -47.97267,-91.00664 -50.01223,-93.3197 -1.56288,-1.64884 -3.73138,-2.58266 -6.00146,-2.58266 -2.27009,0 -4.4425,0.93382 -6.00147,2.58266 z m 6.00147,141.33144 c -26.54165,0 -40.00979,-16.15629 -40.00979,-48.01174 0,-21.75141 25.03738,-57.15851 40.00979,-75.60443 14.98022,18.40685 40.00978,53.82176 40.00978,75.60443 0,31.85545 -13.46813,48.01174 -40.00978,48.01174 z m 0,0"
       id="path875"
       style="stroke-width:1.00024462" />
    <path
       inkscape:connector-curvature="0"
       d="m 218.67265,499.93768 c -2.49671,-1.00806 -4.42296,-3.05934 -5.27473,-5.61466 -0.84786,-2.5514 -0.53529,-5.35287 0.85959,-7.65421 1.97314,-3.9541 0.37119,-8.76386 -3.58681,-10.737 -3.9541,-1.97705 -8.75995,-0.37119 -10.73701,3.5829 -3.28986,6.11088 -3.9111,13.31186 -1.71917,19.8955 2.19586,6.58364 7.00954,11.97167 13.30404,14.89036 3.958,1.97704 8.76386,0.37118 10.74091,-3.58682 1.97313,-3.95409 0.37118,-8.75995 -3.58682,-10.73699 z m 0,0"
       id="path877"
       style="stroke-width:1.00024462" />
  </g>
  <g
     id="g885"
     transform="matrix(0.26234697,0,0,0.26234697,111.04819,285.61287)">
    <path
       style="stroke-width:1.00024462"
       id="path881"
       d="m 217.09805,389.77402 c -2.03956,2.31306 -50.01223,57.10381 -50.01223,93.3197 0,40.68182 20.41905,64.01565 56.0137,64.01565 35.59073,0 56.01369,-23.33383 56.01369,-64.01565 0,-36.21589 -47.97267,-91.00664 -50.01223,-93.3197 -1.56288,-1.64884 -3.73138,-2.58266 -6.00146,-2.58266 -2.27009,0 -4.4425,0.93382 -6.00147,2.58266 z m 6.00147,141.33144 c -26.54165,0 -40.00979,-16.15629 -40.00979,-48.01174 0,-21.75141 25.03738,-57.15851 40.00979,-75.60443 14.98022,18.40685 40.00978,53.82176 40.00978,75.60443 0,31.85545 -13.46813,48.01174 -40.00978,48.01174 z m 0,0"
       inkscape:connector-curvature="0" />
    <path
       style="stroke-width:1.00024462"
       id="path883"
       d="m 218.67265,499.93768 c -2.49671,-1.00806 -4.42296,-3.05934 -5.27473,-5.61466 -0.84786,-2.5514 -0.53529,-5.35287 0.85959,-7.65421 1.97314,-3.9541 0.37119,-8.76386 -3.58681,-10.737 -3.9541,-1.97705 -8.75995,-0.37119 -10.73701,3.5829 -3.28986,6.11088 -3.9111,13.31186 -1.71917,19.8955 2.19586,6.58364 7.00954,11.97167 13.30404,14.89036 3.958,1.97704 8.76386,0.37118 10.74091,-3.58682 1.97313,-3.95409 0.37118,-8.75995 -3.58682,-10.73699 z m 0,0"
       inkscape:connector-curvature="0" />
  </g>
  <g
     transform="matrix(0.26234697,0,0,0.26234697,-17.085125,179.85204)"
     id="g891">
    <path
       inkscape:connector-curvature="0"
       d="m 217.09805,389.77402 c -2.03956,2.31306 -50.01223,57.10381 -50.01223,93.3197 0,40.68182 20.41905,64.01565 56.0137,64.01565 35.59073,0 56.01369,-23.33383 56.01369,-64.01565 0,-36.21589 -47.97267,-91.00664 -50.01223,-93.3197 -1.56288,-1.64884 -3.73138,-2.58266 -6.00146,-2.58266 -2.27009,0 -4.4425,0.93382 -6.00147,2.58266 z m 6.00147,141.33144 c -26.54165,0 -40.00979,-16.15629 -40.00979,-48.01174 0,-21.75141 25.03738,-57.15851 40.00979,-75.60443 14.98022,18.40685 40.00978,53.82176 40.00978,75.60443 0,31.85545 -13.46813,48.01174 -40.00978,48.01174 z m 0,0"
       id="path887"
       style="stroke-width:1.00024462" />
    <path
       inkscape:connector-curvature="0"
       d="m 218.67265,499.93768 c -2.49671,-1.00806 -4.42296,-3.05934 -5.27473,-5.61466 -0.84786,-2.5514 -0.53529,-5.35287 0.85959,-7.65421 1.97314,-3.9541 0.37119,-8.76386 -3.58681,-10.737 -3.9541,-1.97705 -8.75995,-0.37119 -10.73701,3.5829 -3.28986,6.11088 -3.9111,13.31186 -1.71917,19.8955 2.19586,6.58364 7.00954,11.97167 13.30404,14.89036 3.958,1.97704 8.76386,0.37118 10.74091,-3.58682 1.97313,-3.95409 0.37118,-8.75995 -3.58682,-10.73699 z m 0,0"
       id="path889"
       style="stroke-width:1.00024462" />
  </g>
  <g
     id="g897"
     transform="matrix(0.26234697,0,0,0.26234697,336.80689,179.85204)">
    <path
       style="stroke-width:1.00024462"
       id="path893"
       d="m 217.09805,389.77402 c -2.03956,2.31306 -50.01223,57.10381 -50.01223,93.3197 0,40.68182 20.41905,64.01565 56.0137,64.01565 35.59073,0 56.01369,-23.33383 56.01369,-64.01565 0,-36.21589 -47.97267,-91.00664 -50.01223,-93.3197 -1.56288,-1.64884 -3.73138,-2.58266 -6.00146,-2.58266 -2.27009,0 -4.4425,0.93382 -6.00147,2.58266 z m 6.00147,141.33144 c -26.54165,0 -40.00979,-16.15629 -40.00979,-48.01174 0,-21.75141 25.03738,-57.15851 40.00979,-75.60443 14.98022,18.40685 40.00978,53.82176 40.00978,75.60443 0,31.85545 -13.46813,48.01174 -40.00978,48.01174 z m 0,0"
       inkscape:connector-curvature="0" />
    <path
       style="stroke-width:1.00024462"
       id="path895"
       d="m 218.67265,499.93768 c -2.49671,-1.00806 -4.42296,-3.05934 -5.27473,-5.61466 -0.84786,-2.5514 -0.53529,-5.35287 0.85959,-7.65421 1.97314,-3.9541 0.37119,-8.76386 -3.58681,-10.737 -3.9541,-1.97705 -8.75995,-0.37119 -10.73701,3.5829 -3.28986,6.11088 -3.9111,13.31186 -1.71917,19.8955 2.19586,6.58364 7.00954,11.97167 13.30404,14.89036 3.958,1.97704 8.76386,0.37118 10.74091,-3.58682 1.97313,-3.95409 0.37118,-8.75995 -3.58682,-10.73699 z m 0,0"
       inkscape:connector-curvature="0" />
  </g>
  <g
     transform="matrix(0.26234697,0,0,0.26234697,277.82489,49.684863)"
     id="g903">
    <path
       inkscape:connector-curvature="0"
       d="m 217.09805,389.77402 c -2.03956,2.31306 -50.01223,57.10381 -50.01223,93.3197 0,40.68182 20.41905,64.01565 56.0137,64.01565 35.59073,0 56.01369,-23.33383 56.01369,-64.01565 0,-36.21589 -47.97267,-91.00664 -50.01223,-93.3197 -1.56288,-1.64884 -3.73138,-2.58266 -6.00146,-2.58266 -2.27009,0 -4.4425,0.93382 -6.00147,2.58266 z m 6.00147,141.33144 c -26.54165,0 -40.00979,-16.15629 -40.00979,-48.01174 0,-21.75141 25.03738,-57.15851 40.00979,-75.60443 14.98022,18.40685 40.00978,53.82176 40.00978,75.60443 0,31.85545 -13.46813,48.01174 -40.00978,48.01174 z m 0,0"
       id="path899"
       style="stroke-width:1.00024462" />
    <path
       inkscape:connector-curvature="0"
       d="m 218.67265,499.93768 c -2.49671,-1.00806 -4.42296,-3.05934 -5.27473,-5.61466 -0.84786,-2.5514 -0.53529,-5.35287 0.85959,-7.65421 1.97314,-3.9541 0.37119,-8.76386 -3.58681,-10.737 -3.9541,-1.97705 -8.75995,-0.37119 -10.73701,3.5829 -3.28986,6.11088 -3.9111,13.31186 -1.71917,19.8955 2.19586,6.58364 7.00954,11.97167 13.30404,14.89036 3.958,1.97704 8.76386,0.37118 10.74091,-3.58682 1.97313,-3.95409 0.37118,-8.75995 -3.58682,-10.73699 z m 0,0"
       id="path901"
       style="stroke-width:1.00024462" />
  </g>
</svg>
