<?xml version="1.0" encoding="iso-8859-1"?>
<!-- Generator: Adobe Illustrator 19.0.0, SVG Export Plug-In . SVG Version: 6.00 Build 0)  -->
<svg version="1.1" id="Layer_1" xmlns="http://www.w3.org/2000/svg" xmlns:xlink="http://www.w3.org/1999/xlink" x="0px" y="0px"
	 viewBox="0 0 485 485" style="enable-background:new 0 0 485 485;" xml:space="preserve">
<g>
	<g id="XMLID_29_">
		<g>
			<path style="fill:#FFE1B2;" d="M147.5,367.5c0,0,33.7-17.6,44.8-29.8c-4.3,5.4-86.2,108.4-54.8,139.8h-85c0-14,0-25,0-25
				S53.4,397.8,147.5,367.5z"/>
			<path style="fill:#FFE1B2;" d="M337.5,367.5c94.7,30,95,85,95,85s0,11,0,25h-85c31.4-31.4-50.5-134.4-54.8-139.8
				C303.8,349.9,337.5,367.5,337.5,367.5z"/>
			<path style="fill:#BF569D;" d="M292.7,337.7c4.3,5.4,86.2,108.4,54.8,139.8h-210c-31.4-31.4,50.5-134.4,54.8-139.8
				c0.1-0.1,0.2-0.2,0.2-0.2s20.6,25,50,25s50-25,50-25S292.6,337.6,292.7,337.7z"/>
			<path style="fill:#FFD7A3;" d="M192.5,337.5v-31.8c14.6,7.6,31.4,11.8,50,11.8s35.4-4.2,50-11.8v31.8c0,0-20.6,25-50,25
				S192.5,337.5,192.5,337.5z"/>
		</g>
		<g>
			<path style="fill:#FFE1B2;" d="M352.5,142.5v55c0,33.2-10.9,63.2-30.1,84.9c-8.5,9.5-18.5,17.4-29.9,23.3
				c-14.6,7.6-31.4,11.8-50,11.8s-35.4-4.2-50-11.8c-11.4-5.9-21.4-13.8-29.9-23.3c-19.2-21.7-30.1-51.7-30.1-84.9v-55
				c0,0,107.5-22.5,160-75L352.5,142.5z"/>
			<path style="fill:#A67C52;" d="M322.4,282.4c19.2-21.7,30.1-51.7,30.1-84.9v-55l-60-75c-52.5,52.5-160,75-160,75v55
				c0,33.2,10.9,63.2,30.1,84.9l-0.1,0.1l-90,25c0,0-47.9-300,170-300s170,300,170,300l-90-25L322.4,282.4z"/>
		</g>
	</g>
	<g>
		<path style="fill:#231F20;" d="M340.4,360.552c-8.893-4.685-30.905-17.158-40.4-26.126v-24.283
			c9.021-5.163,17.301-11.607,24.716-19.243l93.866,26.074l1.324-8.291c0.27-1.691,6.582-42.005,3.91-93.559
			c-1.575-30.389-5.979-58.323-13.09-83.027c-8.989-31.229-22.366-57.401-39.758-77.791C340.23,18.271,297.007,0,242.5,0
			s-97.73,18.271-128.468,54.306c-39.172,45.923-50.36,112.801-52.849,160.818c-2.671,51.553,3.64,91.868,3.91,93.559l1.324,8.291
			l93.865-26.074c7.407,7.629,15.694,14.08,24.717,19.243v24.282c-9.495,8.965-31.531,21.454-40.417,26.135
			C47.099,392.186,45.04,449.929,45,452.376V485h395v-32.541C439.986,449.996,438.545,391.89,340.4,360.552z M343.995,470h-202.99
			c-14.153-20.956,21.245-80.884,52.111-121.157C202.068,357.055,219.777,370,242.5,370s40.432-12.945,49.385-21.157
			C322.75,389.116,358.148,449.044,343.995,470z M242.5,325c15.079,0,29.323-2.595,42.5-7.702v17.313
			C279.87,339.974,263.613,355,242.5,355c-20.968,0-37.332-15.043-42.5-20.406v-17.297C213.182,322.406,227.424,325,242.5,325z
			 M76.18,215.581c2.395-45.605,12.891-108.921,49.289-151.569C153.225,31.49,192.6,15,242.5,15s89.275,16.49,117.031,49.012
			c36.398,42.648,46.894,105.964,49.289,151.569c1.923,36.616-0.929,68.016-2.623,82.385l-70.908-19.697
			C351.295,256.065,360,227.828,360,197.5v-57.631l-66.878-83.598l-5.925,5.925c-50.284,50.284-155.181,72.742-156.235,72.962
			L125,136.41v61.09c0,30.328,8.705,58.565,24.711,80.768l-70.908,19.697C77.109,283.596,74.257,252.196,76.18,215.581z
			 M168.204,277.416C150.017,256.852,140,228.471,140,197.5v-49.016c9.829-2.345,30.75-7.772,55.381-16.75
			c41.514-15.131,73.875-33,96.354-53.185L345,145.131V197.5c0,30.979-10.021,59.365-28.189,79.899
			c-8.043,8.989-17.382,16.27-27.773,21.648C275.075,306.315,259.417,310,242.5,310s-32.575-3.685-46.553-10.96
			C185.578,293.672,176.244,286.397,168.204,277.416z M60,452.59c0.056-1.514,2.773-49.93,89.799-77.951c0,0,5.843-2.949,10.66-5.67
			c-5.163,7.809-10.511,16.373-15.482,25.201c-18.773,33.345-25.576,58.745-20.373,75.83H60V452.59z M425,470h-64.604
			c5.204-17.084-1.599-42.485-20.373-75.83c-4.971-8.829-10.319-17.392-15.482-25.201c4.818,2.721,10.694,5.681,10.694,5.681
			c25.457,8.064,59.721,23.256,78.396,49.835c10.718,15.254,11.344,27.458,11.369,28.096V470z"/>
		<path style="fill:#231F20;" d="M242.5,235h20v-15H250v-32.5h-15v40C235,231.642,238.358,235,242.5,235z"/>
	</g>
</g>
<g>
</g>
<g>
</g>
<g>
</g>
<g>
</g>
<g>
</g>
<g>
</g>
<g>
</g>
<g>
</g>
<g>
</g>
<g>
</g>
<g>
</g>
<g>
</g>
<g>
</g>
<g>
</g>
<g>
</g>
</svg>
